<svg viewBox="0 0 96 96" xmlns="http://www.w3.org/2000/svg" xmlns:xlink="http://www.w3.org/1999/xlink" id="Icons_TennisRacketAndBall" overflow="hidden"><g><path d="M78 18C69 9 52.4 11.1 42.6 20.8 36.5 27 34 35.2 35.1 42.7 35.1 42.7 36 57.2 33.4 59.8L29.2 64 28.5 63.3 12.9 77.4C12.1 78.2 12.1 79.4 12.9 80.2L15.7 83C16.5 83.8 17.7 83.8 18.5 83L32.6 67.4 32 66.8 36.2 62.6C38.8 60 53.3 60.9 53.3 60.9 60.8 62 69 59.5 75.1 53.4 84.9 43.6 86.9 27 78 18ZM58.9 38.5 61.7 41.3 58.9 44.1 56 41.4 58.9 38.5ZM54.6 40 51.8 37.2 54.6 34.4 57.4 37.2 54.6 40ZM60.3 37.1 63.1 34.3 65.9 37.1 63.1 40 60.3 37.1ZM64.5 32.9 67.3 30.1 70.1 32.9 67.3 35.7 64.5 32.9ZM68.8 28.6 71.6 25.8 74.4 28.6 71.6 31.4 68.8 28.6ZM67.4 27.2 64.6 24.4 67.4 21.6 70.2 24.4 67.4 27.2ZM65.9 28.6 63.1 31.4 60.3 28.6 63.1 25.8 65.9 28.6ZM61.7 32.9 58.9 35.7 56 32.9 58.8 30.1 61.7 32.9ZM54.6 31.5 51.8 28.7 54.6 25.9 57.4 28.7 54.6 31.5ZM53.2 32.9 50.4 35.7 47.6 32.9 50.4 30.1 53.2 32.9ZM49 37.1 46.1 40 43.3 37.2 46.1 34.4 49 37.1ZM50.4 38.5 53.2 41.3 50.4 44.1 47.6 41.3 50.4 38.5ZM54.6 42.8 57.4 45.6 54.6 48.4 51.8 45.6 54.6 42.8ZM58.9 47 61.7 49.8 58.9 52.6 56 49.9 58.9 47ZM60.3 45.6 63.1 42.8 65.9 45.6 63.1 48.4 60.3 45.6ZM64.5 41.4 67.3 38.6 70.1 41.4 67.3 44.2 64.5 41.4ZM68.8 37.1 71.6 34.3 74.4 37.1 71.6 40 68.8 37.1ZM73 32.9 75.8 30.1 78.6 32.9 75.8 35.7 73 32.9ZM77.3 28.6 78.9 27C79.3 28.3 79.6 29.6 79.7 30.9L77.3 28.6ZM75.8 27.2 73 24.4 75.8 21.6C76.7 22.6 77.4 23.8 78 25L75.8 27.2ZM71.6 23 68.8 20.2 71 18C72.2 18.6 73.4 19.3 74.4 20.2L71.6 23ZM67.4 18.7 65 16.4C66.4 16.5 67.7 16.8 68.9 17.2L67.4 18.7ZM65.9 20.2 63.1 23 60.3 20.2 63.1 17.4 65.9 20.2ZM61.7 24.4 58.9 27.2 56 24.4 58.8 21.6 61.7 24.4ZM54.6 23 51.1 19.5C52.4 18.8 53.7 18.2 55 17.8L57.4 20.2 54.6 23ZM53.2 24.4 50.4 27.2 46.2 23C47.2 22.1 48.3 21.3 49.4 20.5L53.2 24.4ZM49 28.6 46.2 31.4 42.4 27.6C43.1 26.5 43.9 25.4 44.9 24.4L49 28.6ZM44.7 32.9 41.9 35.7 39.7 33.5C40.1 32.1 40.6 30.8 41.3 29.4L44.7 32.9ZM40.5 37.1 38.9 38.7C38.9 37.7 39 36.7 39.2 35.8L40.5 37.1ZM41.9 38.5 44.7 41.3 40.1 46C39.5 44.5 39.2 43 39 41.5L41.9 38.5ZM46.1 42.8 48.9 45.6 43.3 51.2C42.4 50.2 41.6 49.1 41 47.9L46.1 42.8ZM44.8 52.6 50.4 47 53.2 49.8 48.1 55C46.9 54.3 45.8 53.6 44.8 52.6ZM54.6 51.3 57.4 54.1 54.6 57C53 56.8 51.5 56.4 50.1 55.9L54.6 51.3ZM58.9 55.5 60.2 56.8C59.2 57 58.2 57 57.3 57.1L58.9 55.5ZM60.3 54.1 63.1 51.3 66.6 54.8C65.3 55.5 63.9 56 62.5 56.4L60.3 54.1ZM64.5 49.9 67.3 47.1 71.5 51.3C70.5 52.2 69.4 53 68.3 53.8L64.5 49.9ZM68.8 45.6 71.6 42.8 75.5 46.7C74.8 47.8 73.9 48.9 73 49.9L68.8 45.6ZM73 41.4 75.8 38.6 78.2 41C77.7 42.3 77.1 43.6 76.5 44.9L73 41.4ZM78.9 38.8 77.2 37.1 79.6 34.7C79.5 36.1 79.3 37.5 78.9 38.8ZM61.2 16.4 58.8 18.8 57.1 17.1C58.5 16.7 59.9 16.5 61.2 16.4Z"/><path d="M80.4 69.2C78.9 70.3 78 72 78 74 78 76 78.9 77.7 80.4 78.8 81.4 77.5 82 75.8 82 74 82 72.2 81.4 70.5 80.4 69.2Z"/><g><path d="M67.6 69.2C66.6 70.5 66 72.2 66 74 66 75.8 66.6 77.5 67.6 78.8 69.1 77.7 70 76 70 74 70 72 69.1 70.3 67.6 69.2Z"/><path d="M76 74C76 71.5 77.2 69.2 79 67.8 77.6 66.7 75.9 66 74 66 72.1 66 70.4 66.7 69 67.8 70.8 69.3 72 71.5 72 74 72 76.5 70.8 78.8 69 80.2 70.4 81.3 72.1 82 74 82 75.9 82 77.6 81.3 79 80.2 77.2 78.8 76 76.5 76 74Z"/></g></g></svg>