<svg viewBox="0 0 96 96" xmlns="http://www.w3.org/2000/svg" xmlns:xlink="http://www.w3.org/1999/xlink" id="Icons_SportBalls" overflow="hidden"><path d="M31.39 35.88C27.1816 38.9293 26.2419 44.8128 29.2912 49.0212 29.8754 49.8274 30.5838 50.5358 31.39 51.12 34.8694 46.6358 34.8694 40.3642 31.39 35.88Z"/><path d="M11.61 35.88C8.13055 40.3642 8.13055 46.6358 11.61 51.12 15.8184 48.0707 16.7581 42.1872 13.7088 37.9788 13.1246 37.1726 12.4162 36.4642 11.61 35.88Z"/><path d="M24.5 43.5C24.4992 39.6772 26.2632 36.068 29.28 33.72 24.7313 30.0925 18.2787 30.0925 13.73 33.72 19.1313 37.9391 20.0897 45.738 15.8706 51.1394 15.2471 51.9376 14.5282 52.6565 13.73 53.28 18.2787 56.9075 24.7313 56.9075 29.28 53.28 26.2632 50.932 24.4992 47.3228 24.5 43.5Z"/><path d="M64.65 8.08C64.6535 13.8121 62.5583 19.3471 58.76 23.64L63.15 28 78.53 12.65C74.66 9.24269 69.7663 7.21978 64.62 6.9 64.64 7.29 64.65 7.68 64.65 8.08Z"/><path d="M56.63 21.51C59.8596 17.7816 61.6351 13.0127 61.63 8.08 61.63 7.68 61.63 7.3 61.57 6.91 56.4558 7.24431 51.5962 9.26269 47.75 12.65Z"/><path d="M65.27 30.15 69.36 34.24C73.6529 30.4417 79.1879 28.3465 84.92 28.35 85.41 28.35 85.92 28.35 86.38 28.35 86.0105 23.3026 83.9979 18.5153 80.65 14.72Z"/><path d="M84.92 31.35C79.9873 31.3449 75.2184 33.1204 71.49 36.35L80.65 45.51C84.1078 41.5909 86.1409 36.619 86.42 31.4 85.92 31.39 85.43 31.35 84.92 31.35Z"/><path d="M41.08 28.65C46.0127 28.6551 50.7816 26.8796 54.51 23.65L45.65 14.79C42.2666 18.6386 40.2488 23.4968 39.91 28.61 40.3 28.62 40.68 28.65 41.08 28.65Z"/><path d="M69.37 38.49C66.1404 42.2184 64.3649 46.9873 64.37 51.92 64.37 52.43 64.37 52.92 64.44 53.42 69.659 53.1409 74.6309 51.1078 78.55 47.65Z"/><path d="M61.35 51.92C61.3465 46.1879 63.4417 40.6529 67.24 36.36L63.15 32.27 47.77 47.65C51.5653 50.9979 56.3526 53.0105 61.4 53.38 61.37 52.9 61.35 52.41 61.35 51.92Z"/><path d="M61 30.15 56.61 25.76C52.3171 29.5583 46.7821 31.6535 41.05 31.65 40.65 31.65 40.26 31.65 39.87 31.65 40.1898 36.7963 42.2127 41.69 45.62 45.56Z"/><path d="M25 64.66C22.9028 66.2718 20.9458 68.0581 19.15 70 17.6489 71.7183 17.6489 74.2817 19.15 76 20.9593 77.9283 22.9151 79.7136 25 81.34Z"/><path d="M68.8 70C67.0139 68.0695 65.0742 66.287 63 64.67L63 81.33C65.0728 79.6895 67.0122 77.8872 68.8 75.94 70.3672 74.2701 70.3672 71.6699 68.8 70Z"/><path d="M58.75 61.79C54.38 59.11 49.18 57 44 57 38.82 57 33.6 59.11 29.23 61.79L29.03 61.91 29.03 84.09 29.23 84.21C33.57 86.89 38.77 89 44 89 49.23 89 54.41 86.89 58.78 84.21L59.03 84.07 59.03 61.94ZM55 76C55 76.5523 54.5523 77 54 77 53.4477 77 53 76.5523 53 76L53 74 50 74 50 76C50 76.5523 49.5523 77 49 77 48.4477 77 48 76.5523 48 76L48 74 45 74 45 76C45 76.5523 44.5523 77 44 77 43.4477 77 43 76.5523 43 76L43 74 40 74 40 76C40 76.5523 39.5523 77 39 77 38.4477 77 38 76.5523 38 76L38 74 35 74 35 76C35 76.5523 34.5523 77 34 77 33.4477 77 33 76.5523 33 76L33 70C33 69.4477 33.4477 69 34 69 34.5523 69 35 69.4477 35 70L35 72 38 72 38 70C38 69.4477 38.4477 69 39 69 39.5523 69 40 69.4477 40 70L40 72 43 72 43 70C43 69.4477 43.4477 69 44 69 44.5523 69 45 69.4477 45 70L45 72 48 72 48 70C48 69.4477 48.4477 69 49 69 49.5523 69 50 69.4477 50 70L50 72 53 72 53 70C53 69.4477 53.4477 69 54 69 54.5523 69 55 69.4477 55 70Z"/></svg>