<svg viewBox="0 0 96 96" xmlns="http://www.w3.org/2000/svg" xmlns:xlink="http://www.w3.org/1999/xlink" id="Icons_Towel" overflow="hidden"><g><path d="M82 21 80.7 21C80.9 22 81 23 81 24L81 27 82 27C83.7 27 85 25.7 85 24 85 22.3 83.7 21 82 21Z"/><path d="M66 13 47 13 32 13C28.6 13 25.5 14.6 23.5 17L27.7 17C31.2 17 34.3 19.4 34.8 22.8 35 23.2 35 23.6 35 24L35 24 35 71C35 72.1 35.9 73 37 73L75 73C76.1 73 77 72.1 77 71L77 24C77 17.9 72.1 13 66 13Z"/><path d="M37 77C33.7 77 31 74.3 31 71L31 30.3C30.1 30.7 29.1 31 28 31L23 31 23 81C23 82.1 23.9 83 25 83L67 83C68.1 83 69 82.1 69 81L69 77 37 77Z"/><path d="M28 21 14 21C12.3 21 11 22.3 11 24 11 25.7 12.3 27 14 27L28 27C29.7 27 31 25.7 31 24 31 22.3 29.7 21 28 21Z"/></g></svg>